<svg xmlns="http://www.w3.org/2000/svg" xmlns:xlink="http://www.w3.org/1999/xlink" width="940" zoomAndPan="magnify" viewBox="0 0 705 591.000005" height="788" preserveAspectRatio="xMidYMid meet" version="1.0"><path fill="#a000d9" d="M 331.898438 59.691406 C 326.585938 58.992188 320.949219 60.449219 316.417969 64.503906 C 297.964844 81.027344 269.28125 101.429688 232.9375 110.515625 C 192.238281 120.6875 148.472656 118.609375 120.859375 115.507812 C 107.351562 113.992188 96.488281 126.429688 99.78125 139.617188 L 133.183594 273.261719 C 143.472656 314.417969 176.410156 346.046875 217.949219 354.660156 L 271.898438 365.839844 C 283.207031 368.1875 294.964844 365.183594 303.761719 357.703125 L 325.078125 339.578125 L 346.679688 321.210938 C 378.6875 294.003906 392.492188 250.996094 382.304688 210.242188 L 348.335938 74.3125 C 346.25 65.96875 339.40625 60.675781 331.898438 59.691406 Z M 300.148438 161.5625 C 323.578125 158.441406 350.839844 183.222656 350.839844 183.222656 C 304.300781 168.238281 270.507812 195.839844 270.507812 195.839844 C 270.507812 195.839844 276.722656 164.683594 300.148438 161.5625 Z M 151.1875 233.125 C 151.1875 233.125 163.585938 198.433594 185.726562 190.160156 C 207.867188 181.890625 228.011719 206.460938 228.011719 206.460938 C 228.011719 206.460938 185.203125 198.003906 151.1875 233.125 Z M 276.78125 324.097656 C 217.867188 338.527344 189.734375 266.871094 189.734375 266.871094 C 189.734375 266.871094 238.328125 286.207031 269.675781 274.800781 C 301.019531 263.398438 326.871094 240.210938 326.871094 240.210938 C 326.871094 240.210938 335.699219 309.664062 276.78125 324.097656 Z M 276.78125 324.097656 " fill-opacity="1" fill-rule="nonzero"/><path fill="#5c1664" d="M 348.335938 74.3125 L 382.308594 210.242188 C 392.496094 250.996094 378.691406 294.003906 346.6875 321.210938 L 325.082031 339.574219 C 328.554688 323.871094 336.808594 298.414062 356.40625 266.980469 C 385.542969 220.25 343.339844 92.144531 331.902344 59.691406 C 339.40625 60.675781 346.25 65.96875 348.335938 74.3125 Z M 348.335938 74.3125 " fill-opacity="1" fill-rule="nonzero"/><path fill="#3b9a4a" d="M 589.464844 275.113281 C 585.046875 272.085938 579.359375 270.828125 573.480469 272.390625 C 549.542969 278.753906 514.730469 283.941406 478.214844 275.566406 C 437.328125 266.191406 399.257812 244.5 376.042969 229.222656 C 364.695312 221.75 349.371094 227.910156 346.332031 241.160156 L 315.539062 375.429688 C 306.054688 416.777344 321.082031 459.902344 354.207031 486.402344 L 397.230469 520.824219 C 406.25 528.039062 418.089844 530.691406 429.324219 528.011719 L 456.539062 521.515625 L 484.121094 514.933594 C 524.980469 505.1875 556.777344 473.109375 566.167969 432.164062 L 597.488281 295.597656 C 599.410156 287.21875 595.710938 279.394531 589.464844 275.113281 Z M 561.59375 357.347656 C 561.59375 357.347656 534.820312 382.65625 511.332031 379.992188 C 487.847656 377.328125 481.027344 346.300781 481.027344 346.300781 C 481.027344 346.300781 515.355469 373.238281 561.59375 357.347656 Z M 358.28125 310.71875 C 392.972656 345.167969 435.605469 335.882812 435.605469 335.882812 C 435.605469 335.882812 415.949219 360.835938 393.648438 353 C 371.347656 345.160156 358.28125 310.71875 358.28125 310.71875 Z M 422.609375 451.023438 C 389.320312 448.882812 356.335938 459.746094 356.335938 459.746094 C 356.335938 459.746094 376.132812 392.585938 435.886719 403.027344 C 488.863281 412.28125 492.507812 473.804688 492.65625 487.632812 C 492.117188 488.035156 491.582031 488.441406 491.054688 488.84375 C 483.6875 481.796875 451.816406 452.902344 422.609375 451.023438 Z M 422.609375 451.023438 " fill-opacity="1" fill-rule="nonzero"/><path fill="#08813d" d="M 597.488281 295.597656 L 566.167969 432.164062 C 556.777344 473.105469 524.976562 505.183594 484.117188 514.933594 L 456.535156 521.511719 C 463.53125 513.003906 474.59375 501.4375 491.058594 488.84375 C 491.585938 488.441406 492.117188 488.035156 492.660156 487.632812 C 499.859375 482.210938 508.058594 476.613281 517.363281 471 C 564.507812 442.550781 584.953125 309.230469 589.464844 275.113281 C 595.710938 279.394531 599.410156 287.21875 597.488281 295.597656 Z M 597.488281 295.597656 " fill-opacity="1" fill-rule="nonzero"/><path fill="#ffffff" d="M 492.636719 490.386719 C 492.636719 490.386719 492.085938 489.828125 491.054688 488.84375 C 491.582031 488.441406 492.117188 488.035156 492.65625 487.632812 C 492.675781 489.402344 492.636719 490.386719 492.636719 490.386719 Z M 492.636719 490.386719 " fill-opacity="1" fill-rule="nonzero"/><path fill="#e6b701" d="M 137.886719 150.308594 C 137.886719 150.792969 137.839844 151.269531 137.746094 151.746094 C 137.652344 152.21875 137.511719 152.679688 137.328125 153.125 C 137.140625 153.570312 136.914062 153.996094 136.644531 154.398438 C 136.378906 154.800781 136.074219 155.171875 135.730469 155.515625 C 135.390625 155.855469 135.015625 156.160156 134.617188 156.429688 C 134.214844 156.699219 133.789062 156.925781 133.34375 157.109375 C 132.894531 157.292969 132.4375 157.433594 131.960938 157.527344 C 131.488281 157.621094 131.007812 157.667969 130.527344 157.667969 C 130.042969 157.667969 129.5625 157.621094 129.089844 157.527344 C 128.617188 157.433594 128.15625 157.292969 127.707031 157.109375 C 127.261719 156.925781 126.835938 156.699219 126.4375 156.429688 C 126.035156 156.160156 125.660156 155.855469 125.320312 155.515625 C 124.976562 155.171875 124.671875 154.800781 124.40625 154.398438 C 124.136719 153.996094 123.910156 153.570312 123.722656 153.125 C 123.539062 152.679688 123.398438 152.21875 123.304688 151.746094 C 123.210938 151.269531 123.164062 150.792969 123.164062 150.308594 C 123.164062 149.824219 123.210938 149.347656 123.304688 148.871094 C 123.398438 148.398438 123.539062 147.9375 123.722656 147.492188 C 123.910156 147.042969 124.136719 146.621094 124.40625 146.21875 C 124.671875 145.816406 124.976562 145.445312 125.320312 145.101562 C 125.660156 144.761719 126.035156 144.457031 126.4375 144.1875 C 126.835938 143.917969 127.261719 143.691406 127.707031 143.507812 C 128.15625 143.324219 128.617188 143.183594 129.089844 143.089844 C 129.5625 142.996094 130.042969 142.945312 130.527344 142.945312 C 131.007812 142.945312 131.488281 142.996094 131.960938 143.089844 C 132.4375 143.183594 132.894531 143.324219 133.34375 143.507812 C 133.789062 143.691406 134.214844 143.917969 134.617188 144.1875 C 135.015625 144.457031 135.390625 144.761719 135.730469 145.101562 C 136.074219 145.445312 136.378906 145.816406 136.644531 146.21875 C 136.914062 146.621094 137.140625 147.042969 137.328125 147.492188 C 137.511719 147.9375 137.652344 148.398438 137.746094 148.871094 C 137.839844 149.347656 137.886719 149.824219 137.886719 150.308594 Z M 137.886719 150.308594 " fill-opacity="1" fill-rule="nonzero"/><path fill="#e6b701" d="M 328.253906 93.78125 C 328.253906 94.265625 328.207031 94.746094 328.113281 95.21875 C 328.019531 95.691406 327.878906 96.152344 327.695312 96.597656 C 327.511719 97.046875 327.285156 97.46875 327.015625 97.871094 C 326.746094 98.273438 326.441406 98.644531 326.097656 98.988281 C 325.757812 99.328125 325.386719 99.632812 324.984375 99.902344 C 324.582031 100.171875 324.15625 100.398438 323.710938 100.582031 C 323.265625 100.769531 322.804688 100.90625 322.332031 101.003906 C 321.855469 101.097656 321.378906 101.144531 320.894531 101.144531 C 320.410156 101.144531 319.933594 101.097656 319.457031 101.003906 C 318.984375 100.90625 318.523438 100.769531 318.078125 100.582031 C 317.628906 100.398438 317.207031 100.171875 316.804688 99.902344 C 316.402344 99.632812 316.03125 99.328125 315.6875 98.988281 C 315.347656 98.644531 315.042969 98.273438 314.773438 97.871094 C 314.503906 97.46875 314.277344 97.046875 314.09375 96.597656 C 313.90625 96.152344 313.769531 95.691406 313.675781 95.21875 C 313.578125 94.746094 313.53125 94.265625 313.53125 93.78125 C 313.53125 93.300781 313.578125 92.820312 313.675781 92.347656 C 313.769531 91.871094 313.90625 91.410156 314.09375 90.964844 C 314.277344 90.519531 314.503906 90.09375 314.773438 89.691406 C 315.042969 89.289062 315.347656 88.917969 315.6875 88.578125 C 316.03125 88.234375 316.402344 87.929688 316.804688 87.660156 C 317.207031 87.394531 317.628906 87.167969 318.078125 86.980469 C 318.523438 86.796875 318.984375 86.65625 319.457031 86.5625 C 319.933594 86.46875 320.410156 86.421875 320.894531 86.421875 C 321.378906 86.421875 321.855469 86.46875 322.332031 86.5625 C 322.804688 86.65625 323.265625 86.796875 323.710938 86.980469 C 324.15625 87.167969 324.582031 87.394531 324.984375 87.660156 C 325.386719 87.929688 325.757812 88.234375 326.097656 88.578125 C 326.441406 88.917969 326.746094 89.289062 327.015625 89.691406 C 327.285156 90.09375 327.511719 90.519531 327.695312 90.964844 C 327.878906 91.410156 328.019531 91.871094 328.113281 92.347656 C 328.207031 92.820312 328.253906 93.300781 328.253906 93.78125 Z M 328.253906 93.78125 " fill-opacity="1" fill-rule="nonzero"/><path fill="#e6b701" d="M 378.066406 263.144531 C 378.066406 263.628906 378.019531 264.105469 377.925781 264.582031 C 377.832031 265.054688 377.691406 265.515625 377.507812 265.960938 C 377.320312 266.40625 377.09375 266.832031 376.828125 267.234375 C 376.558594 267.636719 376.253906 268.007812 375.910156 268.351562 C 375.570312 268.691406 375.199219 268.996094 374.796875 269.265625 C 374.394531 269.535156 373.96875 269.761719 373.523438 269.945312 C 373.078125 270.128906 372.617188 270.269531 372.140625 270.363281 C 371.667969 270.457031 371.191406 270.503906 370.707031 270.503906 C 370.222656 270.503906 369.742188 270.457031 369.269531 270.363281 C 368.796875 270.269531 368.335938 270.128906 367.890625 269.945312 C 367.441406 269.761719 367.019531 269.535156 366.617188 269.265625 C 366.214844 268.996094 365.84375 268.691406 365.5 268.351562 C 365.160156 268.007812 364.855469 267.636719 364.585938 267.234375 C 364.316406 266.832031 364.089844 266.40625 363.90625 265.960938 C 363.71875 265.515625 363.582031 265.054688 363.484375 264.582031 C 363.390625 264.105469 363.34375 263.628906 363.34375 263.144531 C 363.34375 262.660156 363.390625 262.183594 363.484375 261.707031 C 363.582031 261.234375 363.71875 260.773438 363.90625 260.328125 C 364.089844 259.878906 364.316406 259.457031 364.585938 259.054688 C 364.855469 258.652344 365.160156 258.28125 365.5 257.9375 C 365.84375 257.597656 366.214844 257.292969 366.617188 257.023438 C 367.019531 256.753906 367.441406 256.527344 367.890625 256.34375 C 368.335938 256.160156 368.796875 256.019531 369.269531 255.925781 C 369.742188 255.832031 370.222656 255.78125 370.707031 255.78125 C 371.191406 255.78125 371.667969 255.832031 372.140625 255.925781 C 372.617188 256.019531 373.078125 256.160156 373.523438 256.34375 C 373.96875 256.527344 374.394531 256.753906 374.796875 257.023438 C 375.199219 257.292969 375.570312 257.597656 375.910156 257.9375 C 376.253906 258.28125 376.558594 258.652344 376.828125 259.054688 C 377.09375 259.457031 377.320312 259.878906 377.507812 260.328125 C 377.691406 260.773438 377.832031 261.234375 377.925781 261.707031 C 378.019531 262.183594 378.066406 262.660156 378.066406 263.144531 Z M 378.066406 263.144531 " fill-opacity="1" fill-rule="nonzero"/><path fill="#e6b701" d="M 565.402344 306.027344 C 565.402344 306.511719 565.355469 306.988281 565.261719 307.460938 C 565.167969 307.9375 565.027344 308.398438 564.84375 308.84375 C 564.660156 309.289062 564.433594 309.714844 564.164062 310.117188 C 563.894531 310.519531 563.589844 310.890625 563.246094 311.230469 C 562.90625 311.574219 562.535156 311.878906 562.132812 312.148438 C 561.730469 312.414062 561.304688 312.640625 560.859375 312.828125 C 560.414062 313.011719 559.953125 313.152344 559.480469 313.246094 C 559.003906 313.339844 558.527344 313.386719 558.042969 313.386719 C 557.558594 313.386719 557.082031 313.339844 556.605469 313.246094 C 556.132812 313.152344 555.671875 313.011719 555.226562 312.828125 C 554.777344 312.640625 554.355469 312.414062 553.953125 312.148438 C 553.550781 311.878906 553.179688 311.574219 552.835938 311.230469 C 552.496094 310.890625 552.191406 310.519531 551.921875 310.117188 C 551.652344 309.714844 551.425781 309.289062 551.242188 308.84375 C 551.054688 308.398438 550.917969 307.9375 550.824219 307.460938 C 550.726562 306.988281 550.679688 306.511719 550.679688 306.027344 C 550.679688 305.542969 550.726562 305.0625 550.824219 304.589844 C 550.917969 304.117188 551.054688 303.65625 551.242188 303.210938 C 551.425781 302.761719 551.652344 302.339844 551.921875 301.9375 C 552.191406 301.535156 552.496094 301.164062 552.835938 300.820312 C 553.179688 300.480469 553.550781 300.175781 553.953125 299.90625 C 554.355469 299.636719 554.777344 299.410156 555.226562 299.226562 C 555.671875 299.039062 556.132812 298.902344 556.605469 298.804688 C 557.082031 298.710938 557.558594 298.664062 558.042969 298.664062 C 558.527344 298.664062 559.003906 298.710938 559.480469 298.804688 C 559.953125 298.902344 560.414062 299.039062 560.859375 299.226562 C 561.304688 299.410156 561.730469 299.636719 562.132812 299.90625 C 562.535156 300.175781 562.90625 300.480469 563.246094 300.820312 C 563.589844 301.164062 563.894531 301.535156 564.164062 301.9375 C 564.433594 302.339844 564.660156 302.761719 564.84375 303.210938 C 565.027344 303.65625 565.167969 304.117188 565.261719 304.589844 C 565.355469 305.0625 565.402344 305.542969 565.402344 306.027344 Z M 565.402344 306.027344 " fill-opacity="1" fill-rule="nonzero"/></svg>